Patient4_TMGait_0pt4_01_right_05_EMG.mot
version=1
nRows=16
nColumns=33
inDegrees=no
endheader
time	1LAddLong	2LGlutMax	3LGlutMed	4LIliopsoas	5LSemiMemb	6LBicFemLong	7LRecFem	8LVastMed	9LVastLat	10LGasMed	11LTibAnt	12lTibPost	13LPeroneusLong	14LSol	15LExtDigLong	16LFlexDigLong	17RAddLong	18RGlutMax	19RGlutMed	20RIliopsoas	21RSemiMemb	22RBicFemLong	23RRecFem	24RVastMed	25RVastLat	26RGasMed	27RTibAnt	28RTibPost	29RPeroneusLong	30RSol	31RExtDigLong	32RFlexDigLong
6.485	-0.005188	-0.44922	0.13657	-0.001221	-0.018616	-0.039978	-0.007172	0.014801	0.044403	0.046539	-0.083618	-0.016022	-0.057831	-0.039673	0.26337	0.006866	0.06897	0.35751	-0.11032	-0.051422	-0.17273	-0.20126	0.37857	-0.084229	0.000305	0.005188	0.068665	-0.13138	-0.030975	-0.51239	-0.005188	-0.009155
6.486	-0.005188	-0.38986	0.089722	0.003815	-0.017242	-0.045929	-0.092773	0.015869	0.054016	0.054626	-0.000153	-0.011749	-0.047455	-0.010834	0.027161	0.002747	0.070648	0.40009	-0.13367	-0.026245	-0.32715	-0.17227	0.32822	-0.048676	0.031128	0.011749	0.14557	-0.023193	-3.8332	-0.31281	-0.002136	-0.007935
6.487	-0.005188	-0.29221	0.10101	-0.015869	-0.010071	-0.049744	-0.080719	0.011749	0.082092	0.037384	-0.013123	-0.017395	-0.020447	0.006409	-0.090332	0.009155	0.045471	0.4483	-0.20966	0.044403	-0.34256	-0.11551	0.31067	-0.098724	0.018616	0.024261	0.085449	-0.060272	-4.6014	0.30182	-0.001678	0.020752
6.488	-0.006256	-0.18448	0.065613	-0.010376	-0.010834	-0.048065	-0.015564	0.014496	0.097351	0.006714	0.002289	-0.016174	-0.050354	-0.03006	-0.078583	0.006256	-0.007019	0.50827	-0.015106	0.096893	-0.081482	0.036011	0.38986	-0.054474	0.015411	-0.002136	0.22675	0.22018	-3.1395	0.3363	0.010986	-0.014343
6.489	-0.01709	-0.13199	0.071259	-0.005188	0.003052	-0.039368	-0.007782	0.016785	0.11169	-0.023499	-0.025177	-0.012665	-0.010071	-0.022278	0.11612	-0.002289	-0.047455	0.36499	-0.3714	0.1535	0.18326	0.23926	0.45166	0.042267	-0.006866	-0.00946	0.14114	-0.042267	0.89188	0.45639	0.007629	-0.029755
6.49	-0.012817	-0.059967	0.046539	-0.012207	-0.00351	-0.009308	0.056458	0.010986	0.11551	-0.062714	-0.041656	-0.01358	-0.016174	0.003815	0.13962	0.006256	-0.029602	0.18158	-0.57388	0.099335	0.21683	0.345	0.51163	0.048523	-0.018311	-0.027008	-0.022736	-0.22217	2.6236	0.14633	-0.00412	-0.027924
6.491	-0.01236	0.006256	0.032501	-0.0177	0.00061	0.001068	0.091858	0.00946	0.13519	0.000153	-0.02121	-0.00946	-0.078583	0.020142	0.12131	0.002136	-0.022736	0.17303	-0.42847	0.017853	-0.06897	0.40436	0.46249	0.009308	-0.008087	-0.026398	-0.20752	0.29404	1.6164	-0.060577	-0.001831	-0.021515
6.492	-0.017548	0.10315	0.031281	-0.003052	0.003052	-0.038757	0.15625	0.011597	0.14816	0.030823	-0.014648	-0.015717	-0.053864	0.062408	0.067749	-0.000458	-0.050049	0.061951	-0.13229	-0.055847	-0.11078	0.58762	0.43015	0.088501	0.020905	-0.012817	-0.22751	0.12695	0.83298	0.2063	-0.001068	-0.016174
6.493	-0.015106	0.15503	0.014038	-0.006561	-0.007019	-0.046082	0.20554	0.010376	0.15274	0.034943	-0.016174	-0.02243	-0.045166	0.051575	0.031738	0.00473	-0.035095	-0.053253	-0.6543	-0.080414	0.18829	0.61829	0.4837	-0.028076	-0.012512	-0.005188	-0.11658	-0.065613	-1.0692	0.47867	-0.002594	-0.013733
6.494	-0.013428	0.26276	-0.000305	0.000153	-0.002594	-0.049133	0.25864	0.00885	0.15625	0.063324	-0.008698	-0.013275	-0.078125	0.019379	0.12924	0.009003	0.006866	-0.12985	-0.79758	-0.11047	0.21301	0.17914	0.43121	-0.068665	-0.031738	-0.007935	-0.11856	-0.13489	-1.1325	0.072174	-0.002136	-0.010681
6.495	0.004272	0.28748	-0.005493	0.001831	-0.007019	-0.052795	0.16861	0.012665	0.15595	-0.027924	0.018158	-0.019073	-0.064087	0.005341	0.092163	-0.006409	0.016632	-0.32776	-0.87555	-0.095367	0.2179	0.048218	0.38757	-0.051727	-0.009766	-0.006561	-0.13306	0.048065	-1.3283	0.013885	0	-0.015869
6.496	-0.001678	0.38055	0.003052	-0.003967	0.002289	-0.050354	0.13886	0.013428	0.14969	-0.093231	0.13321	-0.029297	-0.067444	0.019073	-0.002899	0.003357	0.038147	-0.44693	-0.71472	-0.074463	0.20767	-0.11047	0.34317	-0.067902	-0.018768	-0.020142	-0.10666	0.051727	0.18234	-0.097961	-0.000916	-0.019836
6.497	-0.000763	0.42282	-0.025177	-0.00412	-0.004272	-0.060883	0.22049	0.009308	0.12695	-0.048676	0.072021	-0.020447	-0.018921	0.082092	1.1581	0.004578	0.036316	-0.51727	-0.93079	-0.028534	0.24155	-0.22812	0.30182	-0.012054	-0.065002	-0.0177	-0.092773	0.039825	0.79086	-0.65506	-0.000916	-0.020142
6.498	0.004272	0.44174	-0.037689	-0.005035	0.001373	-0.050964	0.2536	0.014801	0.12558	-0.05249	0.01709	-0.021973	-0.005798	0.074768	-0.007477	0.012512	0.042419	-0.50522	-1.5292	-0.033875	0.008545	-0.32837	0.41779	-0.090485	-0.091248	-0.041351	0.014191	0.020142	-0.3714	-0.59616	-0.001526	-0.020752
6.499	0.003357	0.48447	-0.027466	-0.014496	0.003052	-0.037537	0.24674	0.00885	0.11643	-0.015869	0.048981	-0.012512	-0.044556	0.06897	-0.55588	-0.009918	-0.00473	-0.37262	-0.91705	-0.028076	-0.39673	-0.18662	0.36331	-0.11963	-0.063934	-0.022583	0.053406	-0.011749	0.6311	0.16083	-0.00061	-0.015564
6.5	0.003967	0.51071	-0.046082	0.006256	0.004883	-0.033875	0.25299	0.002136	0.103	-0.021057	-0.10834	-0.015869	0.02182	0.07843	-0.29495	-0.004578	-0.024109	-0.21042	-0.047455	0.035706	-0.68954	-0.066833	0.077972	0.047455	-0.12116	-0.023956	0.071716	-0.023499	1.2259	0.45944	0.001068	-0.013123
